<?xml version="1.0" encoding="UTF-8"?>
<svg width="882px" height="204px" viewBox="0 0 882 204" version="1.1" xmlns="http://www.w3.org/2000/svg" xmlns:xlink="http://www.w3.org/1999/xlink">
    <title>logo-01</title>
    <defs>
        <linearGradient x1="62.3693776%" y1="31.9894784%" x2="12.9626002%" y2="86.0175344%" id="linearGradient-1">
            <stop stop-color="#1FDDB2" offset="0%"></stop>
            <stop stop-color="#5795FF" offset="100%"></stop>
        </linearGradient>
        <linearGradient x1="126.330221%" y1="-25.9704248%" x2="-6.29483794%" y2="105.952941%" id="linearGradient-2">
            <stop stop-color="#1FDDB2" offset="0%"></stop>
            <stop stop-color="#49A6EC" offset="100%"></stop>
        </linearGradient>
        <linearGradient x1="121.399184%" y1="-21.0536686%" x2="14.084466%" y2="85.693301%" id="linearGradient-3">
            <stop stop-color="#1FDDB2" offset="0%"></stop>
            <stop stop-color="#49A6EC" offset="100%"></stop>
        </linearGradient>
        <linearGradient x1="126.607486%" y1="-26.1137078%" x2="-6.00783097%" y2="105.790038%" id="linearGradient-4">
            <stop stop-color="#1FDDB2" offset="0%"></stop>
            <stop stop-color="#49A6EC" offset="100%"></stop>
        </linearGradient>
    </defs>
    <g id="Page-1" stroke="none" stroke-width="1" fill="none" fill-rule="evenodd">
        <g id="logo-01" fill-rule="nonzero">
            <path d="M304.9,50.8 C271,50.8 244.5,76.9 244.5,110.3 C244.5,143.7 271,169.8 304.9,169.8 C338.9,169.8 365.5,143.7 365.5,110.3 C365.5,76.9 338.8,50.8 304.9,50.8 Z M305.1,150.7 C282.4,150.7 265.9,133.7 265.9,110.2 C265.9,86.9 282.4,70 305.1,70 C327.4,70 344.3,87.3 344.3,110.2 C344.2,133.6 327.7,150.7 305.1,150.7 Z" id="Shape" fill="#000000"></path>
            <path d="M457.6,97.3 C450.6,86.4 437.2,79.6 422.7,79.6 C397.1,79.6 377,99.4 377,124.6 C377,149.9 397.1,169.8 422.7,169.8 C437.4,169.8 450.1,163.3 457.7,152 C458.9,150.2 459.5,148.6 459.5,146.6 C459.5,141.5 455.3,137.3 450.2,137.3 C447.5,137.3 445.3,137.9 442.9,140.7 C437.2,147.4 430.6,150.7 422.9,150.7 C408.4,150.7 397.9,139.8 397.9,124.7 C397.9,110 408.6,98.9 422.9,98.9 C430.8,98.9 437.5,102.3 442.9,109 C444.9,111.3 447.1,112.4 450.2,112.4 C455.4,112.4 459.5,108.2 459.5,102.9 C459.5,101 459,99.4 457.6,97.3 Z" id="Path" fill="#000000"></path>
            <path d="M482.5,57.6 C476.7,57.6 472.1,62.2 472.1,68.1 L472.1,139.3 C472.1,159 483.5,169.8 504.3,169.8 C509.3,169.8 513,169.2 516,168 C520,166.6 522.2,163.5 522.2,159.2 C522.2,154.1 518.5,150.7 513,150.7 C512.2,150.7 511.4,150.7 510.7,150.8 C509.8,150.8 508.9,150.9 507.8,150.9 C496.9,150.9 492.7,147.2 492.7,137.7 L492.7,99.6 L509.3,99.6 C514.6,99.6 518.6,95.7 518.6,90.6 C518.6,85.4 514.6,81.4 509.3,81.4 L492.7,81.4 L492.7,68 C492.9,62.2 488.4,57.6 482.5,57.6 Z" id="Path" fill="#000000"></path>
            <path d="M571.2,79.7 C545.7,79.7 525.7,99.5 525.7,124.7 C525.7,149.9 545.7,169.7 571.2,169.9 C596.9,169.9 617.1,150.1 617.1,124.7 C617.1,99.4 596.9,79.7 571.2,79.7 Z M571.2,150.7 C557.2,150.7 546.6,139.6 546.6,124.9 C546.6,109.9 557,98.9 571.4,98.7 C585.5,98.9 596.1,110.1 596.1,124.9 C596,139.6 585.3,150.7 571.2,150.7 Z" id="Shape" fill="#000000"></path>
            <path d="M675.7,79.7 C665.2,79.7 655.9,83.2 649.3,89.5 L648.9,89.9 L648.9,89.3 C648.6,83.6 644.4,79.5 638.9,79.5 C633,79.5 628.5,84 628.5,89.9 L628.5,190.3 C628.5,196.3 633,200.8 638.9,200.8 C644.7,200.8 649.1,196.3 649.1,190.3 L649.1,159.8 L649.5,160.2 C656.2,166.4 665.5,169.9 675.7,169.9 C700.3,169.9 718.2,150.9 718.2,124.7 C718.2,98.6 700.3,79.7 675.7,79.7 Z M672.8,150.9 C658.5,150.9 648.8,140.4 648.8,124.7 C648.8,109.1 658.4,98.7 672.8,98.7 C686.9,98.7 697.1,109.7 697.1,124.9 C697.1,139.9 686.9,150.9 672.8,150.9 Z" id="Shape" fill="#000000"></path>
            <path d="M739.6,79.7 C733.8,79.7 729.4,84.2 729.4,90.2 L729.4,131.5 C729.4,154.1 745,169.9 767.4,169.9 C789.6,169.9 805.1,154.1 805.1,131.5 L805.1,90.2 C805.1,84.2 800.7,79.7 794.9,79.7 C788.9,79.7 784.5,84.1 784.5,90.2 L784.5,132.9 C784.5,143.2 777.3,150.7 767.4,150.7 C757,150.7 749.8,143.4 749.8,132.9 L749.8,90.2 C749.8,84.2 745.4,79.7 739.6,79.7 Z" id="Path" fill="#000000"></path>
            <path d="M817.1,156.5 C825.2,165.1 836.4,169.9 848.8,169.9 C864.9,169.9 881.2,161.6 881.2,143 C881.2,129.2 871.7,122.4 857.5,116.5 L849.5,113.3 C841.5,110.1 839.2,108.2 839.2,104.6 C839.2,98.5 846.3,97.9 849.3,97.9 C854.8,97.9 860.4,99.9 865.1,103.4 C867.4,105.2 869.2,106.2 871.5,106.2 C876.4,106.2 880.3,102.2 880.3,97.2 C880.3,94.5 879.2,92.2 877.2,90.3 C870.2,83.4 860.4,79.7 849.6,79.7 C831.1,79.7 818.8,90 818.8,105.3 C818.8,118.7 827.9,125.2 841.5,130.9 L850.1,134.5 C856.9,137.2 861.1,139.2 861.1,143.7 C861.1,149.7 854.8,151.8 848.9,151.8 C842.2,151.8 836.2,149.1 830.1,143.4 C828.1,141.6 825.9,140.7 823.6,140.7 C818.5,140.7 814.3,144.8 814.3,149.9 C814.1,152.5 815.1,154.7 817.1,156.5 Z" id="Path" fill="#000000"></path>
            <path d="M103.8,203.8 C103.8,203.8 103.8,203.8 103.8,203.8 C106.6,203.8 109.2,202.7 111.2,200.7 L172.7,139.2 C188.1,123.8 196.5,103.4 196.5,81.6 C196.5,59.8 188,39.3 172.7,24 C157.3,8.6 136.9,0.2 115.1,0.2 C93.3,0.2 72.8,8.7 57.5,24 L14.4,67.1 C12.4,69.1 11.3,71.7 11.3,74.5 C11.3,77.3 12.4,79.9 14.4,81.9 C16.4,83.9 19,85 21.8,85 C24.6,85 27.2,83.9 29.2,81.9 L72.3,38.8 C84.1,27 99.6,21.1 115.1,21.1 C130.6,21.1 146.1,27 157.9,38.8 C181.5,62.4 181.5,100.8 157.9,124.4 L96.4,185.9 C94.4,187.9 93.3,190.5 93.3,193.3 C93.3,196.1 94.4,198.7 96.4,200.7 C98.3,202.7 100.9,203.8 103.8,203.8 Z" id="Path" fill="url(#linearGradient-1)"></path>
            <path d="M51.4,185.2 C51.4,188 52.5,190.6 54.5,192.6 C56.5,194.6 59.1,195.7 61.9,195.7 C61.9,195.7 61.9,195.7 61.9,195.7 C64.7,195.7 67.3,194.6 69.3,192.6 L131.6,130.3 C133.6,128.3 134.7,125.7 134.7,122.9 C134.7,120.1 133.6,117.5 131.6,115.5 C129.6,113.5 127,112.4 124.2,112.4 C124.2,112.4 124.2,112.4 124.2,112.4 C121.4,112.4 118.8,113.5 116.8,115.5 L54.5,177.8 C52.5,179.8 51.4,182.4 51.4,185.2 Z" id="Path" fill="url(#linearGradient-2)"></path>
            <path d="M99,87.2 C96.2,87.2 93.6,88.3 91.6,90.3 L9.6,172.3 C7.6,174.3 6.5,176.9 6.5,179.7 C6.5,182.5 7.6,185.1 9.6,187.1 C11.6,189.1 14.2,190.2 17,190.2 C19.8,190.2 22.4,189.1 24.4,187.1 L106.4,105.1 C108.4,103.1 109.5,100.5 109.5,97.7 C109.5,94.9 108.4,92.3 106.4,90.3 C104.4,88.3 101.8,87.2 99,87.2 Z" id="Path" fill="url(#linearGradient-3)"></path>
            <path d="M81.2,65.1 C79.2,63.1 76.6,62 73.8,62 C73.8,62 73.8,62 73.8,62 C71,62 68.4,63.1 66.4,65.1 L4,127.4 C2,129.4 0.9,132 0.9,134.8 C0.9,137.6 2,140.2 4,142.2 C6,144.2 8.6,145.3 11.4,145.3 C14.2,145.3 16.8,144.2 18.8,142.2 L18.8,142.2 L81.1,79.9 C83.1,77.9 84.2,75.3 84.2,72.5 C84.3,69.7 83.2,67 81.2,65.1 Z" id="Path" fill="url(#linearGradient-4)"></path>
        </g>
    </g>
</svg>